<svg xmlns:svg="http://www.w3.org/2000/svg" xmlns="http://www.w3.org/2000/svg" width="596" height="596" version="1.1">
  <rect width="273.28" height="547.32" x="273.43" y="-0.09" fill="#37474f"/>
  <rect width="273.78" height="273.78" x="0" y="0.21" fill="#607d8b"/>
  <rect width="273.78" height="273.78" x="0" y="273.44" fill="#455a64"/>
  <g transform="translate(-65.108417,-70.63367)" fill="#fff">
    <rect y="125.22" x="183.57" height="161.43" width="32.86" fill="#fff"/>
    <rect transform="matrix(0,1,-1,0,0,0)" y="-280.71" x="189.51" height="161.43" width="32.86" fill="#fff"/>
  </g>
  <path d="m408.21 186.35 25.2 0 0-3.74-45.5-98.35-11.09 0-45.36 98.35 0 3.74 25.2 0 5.9-12.67 39.74 0 5.9 12.67 -14.26-34.7-23.04 0 11.38-26.5 11.66 26.5M452.12 106.43l0 58.9-14.98 0 0 21.02 55.3 0 0-21.02-15.26 0 0-79.78-38.74 0 0 20.88 13.68 0" fill="#ffffff"/>
  <path d="m123.16 461.49 25.2 0 0-3.74-45.5-98.35-11.09 0-45.36 98.35 0 3.74 25.2 0 5.9-12.67 39.74 0 5.9 12.67 -14.26-34.7-23.04 0 11.38-26.5 11.66 26.5M190.4 402.16l-37.87 55.44 0 3.89 70.85 0c0-8.78 0-14.26 0-23.04l-29.95 0 20.3-28.22c14.98-23.18 2.3-51.84-26.64-51.12-17.86 0.43-32.54 11.09-32.26 32.83 8.35 0 13.39 0 21.89 0 0-7.06 4.18-9.79 9.94-9.79 12.67 0 8.78 13.25 3.74 20.02" fill="#ffffff"/>
  <rect width="82.86" height="90.81" x="259.17" y="456.41" fill="#455a64"/>
  <path d="m971.88 926.26a154.37 154.37 0 1 1-308.74 0 154.37 154.37 0 1 1 308.74 0z" transform="matrix(1.0724495,0,0,1.0724495,-446.29013,-562.55598)" fill="#536dfe"/>
  <path d="m366.79 371.69c-10.37 0-20.4 0-30.6 0l0 119c24.14 0 49.3 0 73.78 0 0-10.2 0-17.17 0-27.37l-43.18 0c0-50.66 0-30.09 0-91.63M423.85 431.19c0.17 40.46 30.77 60.86 61.03 60.69 25.33 0 52.02-13.26 56.44-46.92-10.37 0-19.72 0-29.92 0-3.23 12.75-13.6 19.21-26.52 19.21-18.02-0.17-29.58-15.47-29.58-32.98 0-19.72 11.73-33.15 29.58-33.15 12.75 0 21.76 5.44 26.01 17.51 10.37 0 19.55 0 29.92 0-4.59-31.79-31.28-45.22-55.93-45.22-30.26 0-60.86 20.4-61.03 60.86" fill="#ffffff"/>
</svg>
