<svg xmlns:svg="http://www.w3.org/2000/svg" xmlns="http://www.w3.org/2000/svg" version="1.2" width="547" height="547">
  <rect width="273.3" height="400.9" x="273.4" y="-0.1" fill="#37474f"/>
  <rect width="273.8" height="273.8" x="0" y="0.2" fill="#607d8b"/>
  <rect width="273.8" height="273.8" x="0" y="273.4" fill="#455a64"/>
  <g transform="translate(-65.108417,-70.63367)" fill="#fff">
    <rect width="32.9" height="161.4" x="183.6" y="125.2" fill="#fff"/>
    <rect width="32.9" height="161.4" x="189.5" y="-280.7" transform="matrix(0,1,-1,0,0,0)" fill="#fff"/>
  </g>
  <path d="m408.2 186.3 25.2 0 0-3.7-45.5-98.4-11.1 0-45.4 98.4 0 3.7 25.2 0 5.9-12.7 39.7 0 5.9 12.7 -14.3-34.7-23 0 11.4-26.5 11.7 26.5M452.1 106.4l0 58.9-15 0 0 21 55.3 0 0-21-15.3 0 0-79.8-38.7 0 0 20.9 13.7 0" fill="#fff"/>
  <path d="m123.2 461.5 25.2 0 0-3.7-45.5-98.4-11.1 0-45.4 98.4 0 3.7 25.2 0 5.9-12.7 39.7 0 5.9 12.7 -14.3-34.7-23 0 11.4-26.5 11.7 26.5M190.4 402.2l-37.9 55.4 0 3.9 70.8 0c0-8.8 0-14.3 0-23l-30 0 20.3-28.2c15-23.2 2.3-51.8-26.6-51.1-17.9 0.4-32.5 11.1-32.3 32.8 8.4 0 13.4 0 21.9 0 0-7.1 4.2-9.8 9.9-9.8 12.7 0 8.8 13.2 3.7 20" fill="#fff"/>
  <rect width="142.8" height="90.8" x="259.2" y="456.4" fill="#455a64"/>
  <path d="m971.9 926.3a154.4 154.4 0 1 1-308.7 0 154.4 154.4 0 1 1 308.7 0z" transform="matrix(0.9374839,0,0,0.9374839,-364.29837,-465.93399)" fill="#536dfe"/>
  <g transform="translate(-30.739856,-28.787398)">
    <path d="m366.8 371.7c-10.4 0-20.4 0-30.6 0l0 119c24.1 0 49.3 0 73.8 0 0-10.2 0-17.2 0-27.4l-43.2 0c0-50.7 0-30.1 0-91.6M423.8 431.2c0.2 40.5 30.8 60.9 61 60.7 25.3 0 52-13.3 56.4-46.9-10.4 0-19.7 0-29.9 0-3.2 12.7-13.6 19.2-26.5 19.2-18-0.2-29.6-15.5-29.6-33 0-19.7 11.7-33.1 29.6-33.1 12.7 0 21.8 5.4 26 17.5 10.4 0 19.6 0 29.9 0-4.6-31.8-31.3-45.2-55.9-45.2-30.3 0-60.9 20.4-61 60.9" fill="#fff"/>
  </g>
</svg>